<svg version="1.1" xmlns="http://www.w3.org/2000/svg" viewBox="0 0 574.2638129488009 144.695027620595" width="574.2638129488009" height="144.695027620595">
  <!-- svg-source:excalidraw -->
  
  <defs>
    <style class="style-fonts">
      @font-face {
        font-family: "Virgil";
        src: url("https://excalidraw.com/Virgil.woff2");
      }
      @font-face {
        font-family: "Cascadia";
        src: url("https://excalidraw.com/Cascadia.woff2");
      }
      @font-face {
        font-family: "Assistant";
        src: url("https://excalidraw.com/Assistant-Regular.woff2");
      }
    </style>
    
  </defs>
  <g stroke-linecap="round" transform="translate(10.029044325004634 10.000000440920473) rotate(0 83.54254076951179 62.34751358983726)"><path d="M0 0 C64.41 0.38, 129.13 1.47, 167.09 0 M0 0 C54.37 0.48, 106.89 1.41, 167.09 0 M167.09 0 C168.24 46.92, 168.32 90.95, 167.09 124.7 M167.09 0 C166.3 30.35, 166.29 60.11, 167.09 124.7 M167.09 124.7 C102.62 126.37, 39.69 126.1, 0 124.7 M167.09 124.7 C108.7 124.2, 48.45 124.08, 0 124.7 M0 124.7 C1.6 93.1, 1.37 64.79, 0 0 M0 124.7 C0.59 89.78, -0.33 56.78, 0 0" stroke="#1971c2" stroke-width="2" fill="none"></path></g><g transform="translate(18.820490177647685 41.79144629356347) rotate(0 76.26667022705078 24)"><text x="0" y="19.3125" font-family="Cascadia, Segoe UI Emoji" font-size="20px" fill="#1e1e1e" text-anchor="start" style="white-space: pre;" direction="ltr" dominant-baseline="alphabetic">~/foo$ cd bar</text><text x="0" y="43.3125" font-family="Cascadia, Segoe UI Emoji" font-size="20px" fill="#1e1e1e" text-anchor="start" style="white-space: pre;" direction="ltr" dominant-baseline="alphabetic">~/foo/bar$</text></g><g stroke-linecap="round"><g transform="translate(10.213955247020294 30.87090440789575) rotate(0 82.25678217016059 0.7150804180708121)"><path d="M0.82 1.14 C28.41 1.31, 138.13 0.18, 165.35 0.31 M-0.21 0.69 C27.32 1.04, 137.61 1.41, 164.84 1.26" stroke="#1971c2" stroke-width="2" fill="none"></path></g></g><mask></mask><g transform="translate(157.4360046026543 16.00618580044062) rotate(0 4.345301184959169 7.0611144255586)" stroke="none"><path fill="#868e96" d="M 1.94,-1.09 Q 1.94,-1.09 3.24,1.46 4.54,4.02 5.52,5.90 6.50,7.77 7.31,8.97 8.11,10.17 8.46,10.89 8.81,11.61 9.11,11.70 9.42,11.80 9.67,11.98 9.93,12.17 10.11,12.43 10.30,12.69 10.39,12.99 10.48,13.30 10.47,13.62 10.46,13.93 10.35,14.23 10.24,14.53 10.04,14.78 9.84,15.02 9.57,15.19 9.30,15.36 8.99,15.44 8.68,15.51 8.36,15.48 8.05,15.46 7.76,15.33 7.46,15.20 7.23,14.99 6.99,14.78 6.84,14.50 6.68,14.22 6.63,13.91 6.57,13.59 6.61,13.28 6.66,12.96 6.80,12.68 6.94,12.40 7.17,12.17 7.40,11.95 7.68,11.81 7.97,11.67 8.28,11.63 8.60,11.59 8.91,11.65 9.22,11.71 9.50,11.87 9.77,12.03 9.98,12.27 10.20,12.50 10.32,12.80 10.44,13.09 10.47,13.41 10.49,13.72 10.41,14.03 10.33,14.34 10.16,14.61 9.99,14.87 9.74,15.07 9.49,15.27 9.19,15.38 8.89,15.48 8.57,15.49 8.26,15.50 8.26,15.50 8.26,15.50 6.54,13.84 4.82,12.19 4.10,10.88 3.37,9.58 2.22,7.77 1.07,5.97 -0.43,3.53 -1.94,1.09 -2.04,0.84 -2.14,0.59 -2.18,0.33 -2.22,0.06 -2.20,-0.20 -2.17,-0.47 -2.09,-0.72 -2.00,-0.97 -1.85,-1.20 -1.71,-1.42 -1.51,-1.61 -1.31,-1.79 -1.08,-1.92 -0.85,-2.06 -0.59,-2.13 -0.33,-2.20 -0.06,-2.21 0.20,-2.21 0.46,-2.16 0.72,-2.10 0.97,-1.98 1.21,-1.87 1.41,-1.69 1.62,-1.52 1.78,-1.30 1.94,-1.09 1.94,-1.09 L 1.94,-1.09 Z"></path></g><g transform="translate(156.3496793064146 24.696788170358843) rotate(0 5.1600451571389385 -4.073719860899189)" stroke="none"><path fill="#868e96" d="M -1.82,-1.82 Q -1.82,-1.82 -1.06,-2.62 -0.30,-3.41 0.47,-4.33 1.26,-5.24 2.75,-5.89 4.23,-6.53 5.96,-8.16 7.69,-9.78 8.04,-10.14 8.39,-10.49 8.84,-10.72 9.29,-10.94 9.78,-11.01 10.28,-11.08 10.77,-10.99 11.26,-10.89 11.70,-10.65 12.13,-10.40 12.47,-10.03 12.80,-9.66 13.00,-9.20 13.20,-8.74 13.24,-8.25 13.29,-7.75 13.17,-7.26 13.05,-6.78 12.78,-6.36 12.51,-5.93 12.12,-5.62 11.74,-5.30 11.27,-5.13 10.80,-4.96 10.30,-4.94 9.80,-4.93 9.32,-5.07 8.84,-5.22 8.43,-5.51 8.03,-5.80 7.73,-6.20 7.44,-6.61 7.29,-7.09 7.14,-7.56 7.16,-8.06 7.17,-8.56 7.34,-9.03 7.51,-9.50 7.82,-9.89 8.14,-10.28 8.56,-10.55 8.98,-10.82 9.46,-10.95 9.95,-11.07 10.44,-11.03 10.94,-10.99 11.40,-10.79 11.86,-10.60 12.24,-10.27 12.61,-9.93 12.86,-9.50 13.10,-9.06 13.20,-8.57 13.30,-8.08 13.23,-7.59 13.16,-7.09 12.94,-6.64 12.72,-6.19 12.72,-6.19 12.72,-6.19 11.18,-4.87 9.64,-3.54 8.79,-2.82 7.95,-2.10 6.68,-1.49 5.42,-0.87 4.42,-0.28 3.43,0.29 2.62,1.06 1.82,1.82 1.58,2.01 1.33,2.20 1.05,2.33 0.76,2.46 0.46,2.52 0.15,2.57 -0.15,2.55 -0.46,2.53 -0.76,2.44 -1.05,2.35 -1.32,2.19 -1.59,2.03 -1.81,1.81 -2.03,1.59 -2.19,1.32 -2.35,1.05 -2.44,0.76 -2.53,0.46 -2.55,0.15 -2.57,-0.15 -2.52,-0.46 -2.46,-0.76 -2.33,-1.05 -2.20,-1.33 -2.01,-1.58 -1.82,-1.82 -1.82,-1.82 L -1.82,-1.82 Z"></path></g><g stroke-linecap="round" transform="translate(134.08001073349897 15.463023152320716) rotate(0 5.974789129318822 5.4316264811989186)"><path d="M2.72 0 C4.75 0.31, 7.24 0.16, 9.23 0 M2.72 0 C5.25 -0.07, 7.69 0.11, 9.23 0 M9.23 0 C11.37 0.96, 11.87 0.7, 11.95 2.72 M9.23 0 C11.4 -0.69, 12.37 2.04, 11.95 2.72 M11.95 2.72 C11.82 4.15, 11.69 5.83, 11.95 8.15 M11.95 2.72 C11.83 4.82, 12.02 6.55, 11.95 8.15 M11.95 8.15 C11.78 10.95, 10.58 11.26, 9.23 10.86 M11.95 8.15 C12.54 8.94, 10.11 10.37, 9.23 10.86 M9.23 10.86 C7.68 10.85, 6.25 10.57, 2.72 10.86 M9.23 10.86 C6.7 10.91, 4.1 10.75, 2.72 10.86 M2.72 10.86 C0.25 10.16, 0.05 9.01, 0 8.15 M2.72 10.86 C-0.22 11.33, -0.29 9.38, 0 8.15 M0 8.15 C-0.25 7.1, 0.22 5.78, 0 2.72 M0 8.15 C-0.08 6.61, 0.08 4.97, 0 2.72 M0 2.72 C0.52 0.34, 0.19 -0.1, 2.72 0 M0 2.72 C0.39 0.33, 0.56 0.65, 2.72 0" stroke="#868e96" stroke-width="4" fill="none"></path></g><g stroke-linecap="round"><g transform="translate(112.35350480870329 23.610462874119094) rotate(0 7.332695749618551 -0.2715813240599516)"><path d="M-0.52 0.09 C2.06 0.04, 12.6 -0.6, 15.14 -0.64 M0.21 -0.34 C2.79 -0.27, 12.59 0.12, 14.95 0.01" stroke="#868e96" stroke-width="4" fill="none"></path></g></g><mask></mask><g stroke-linecap="round" transform="translate(397.17873140977724 10) rotate(0 83.54254076951185 62.34751358983726)"><path d="M0 0 C47.62 0.9, 98.1 2.04, 167.09 0 M0 0 C34.24 1.73, 68.57 1.73, 167.09 0 M167.09 0 C167.96 50.29, 165.62 96.82, 167.09 124.7 M167.09 0 C166.59 28.65, 166.25 55.75, 167.09 124.7 M167.09 124.7 C107.42 128.17, 44.44 126.11, 0 124.7 M167.09 124.7 C102.01 122.44, 36.11 122.41, 0 124.7 M0 124.7 C-0.8 81.6, 0.8 34.12, 0 0 M0 124.7 C0.95 80.22, 1.46 36.17, 0 0" stroke="#1971c2" stroke-width="2" fill="none"></path></g><g transform="translate(405.9701772624202 41.79144585264305) rotate(0 70.40000152587896 12)"><text x="0" y="19.3125" font-family="Cascadia, Segoe UI Emoji" font-size="20px" fill="#1e1e1e" text-anchor="start" style="white-space: pre;" direction="ltr" dominant-baseline="alphabetic">~/foo/bar$ _</text></g><g stroke-linecap="round"><g transform="translate(397.3636423317929 30.870903966975334) rotate(0 82.25678217016053 0.7150804180708121)"><path d="M0.51 -1.17 C28.12 -1.24, 138.07 0.08, 165.49 0.63 M-0.68 0.83 C26.87 1.41, 137.51 1.85, 165.05 1.75" stroke="#1971c2" stroke-width="2" fill="none"></path></g></g><mask></mask><g transform="translate(544.5856916874268 16.00618535952026) rotate(0 4.345301184959226 7.0611144255586)" stroke="none"><path fill="#868e96" d="M 1.94,-1.09 Q 1.94,-1.09 3.24,1.46 4.54,4.02 5.52,5.90 6.50,7.77 7.31,8.97 8.11,10.17 8.46,10.89 8.81,11.61 9.11,11.70 9.42,11.80 9.67,11.98 9.93,12.17 10.11,12.43 10.30,12.69 10.39,12.99 10.48,13.30 10.47,13.62 10.46,13.93 10.35,14.23 10.24,14.53 10.04,14.78 9.84,15.02 9.57,15.19 9.30,15.36 8.99,15.44 8.68,15.51 8.36,15.48 8.05,15.46 7.76,15.33 7.46,15.20 7.23,14.99 6.99,14.78 6.84,14.50 6.68,14.22 6.63,13.91 6.57,13.59 6.61,13.28 6.66,12.96 6.80,12.68 6.94,12.40 7.17,12.17 7.40,11.95 7.68,11.81 7.97,11.67 8.28,11.63 8.60,11.59 8.91,11.65 9.22,11.71 9.50,11.87 9.77,12.03 9.98,12.27 10.20,12.50 10.32,12.80 10.44,13.09 10.47,13.41 10.49,13.72 10.41,14.03 10.33,14.34 10.16,14.61 9.99,14.87 9.74,15.07 9.49,15.27 9.19,15.38 8.89,15.48 8.57,15.49 8.26,15.50 8.26,15.50 8.26,15.50 6.54,13.84 4.82,12.19 4.10,10.88 3.37,9.58 2.22,7.77 1.07,5.97 -0.43,3.53 -1.94,1.09 -2.04,0.84 -2.14,0.59 -2.18,0.33 -2.22,0.06 -2.20,-0.20 -2.17,-0.47 -2.09,-0.72 -2.00,-0.97 -1.85,-1.20 -1.71,-1.42 -1.51,-1.61 -1.31,-1.79 -1.08,-1.92 -0.85,-2.06 -0.59,-2.13 -0.33,-2.20 -0.06,-2.21 0.20,-2.21 0.46,-2.16 0.72,-2.10 0.97,-1.98 1.21,-1.87 1.41,-1.69 1.62,-1.52 1.78,-1.30 1.94,-1.09 1.94,-1.09 L 1.94,-1.09 Z"></path></g><g transform="translate(543.4993663911873 24.696787729438483) rotate(0 5.1600451571389385 -4.073719860899189)" stroke="none"><path fill="#868e96" d="M -1.82,-1.82 Q -1.82,-1.82 -1.06,-2.62 -0.30,-3.41 0.47,-4.33 1.26,-5.24 2.75,-5.89 4.23,-6.53 5.96,-8.16 7.69,-9.78 8.04,-10.14 8.39,-10.49 8.84,-10.72 9.29,-10.94 9.78,-11.01 10.28,-11.08 10.77,-10.99 11.26,-10.89 11.70,-10.65 12.13,-10.40 12.47,-10.03 12.80,-9.66 13.00,-9.20 13.20,-8.74 13.24,-8.25 13.29,-7.75 13.17,-7.26 13.05,-6.78 12.78,-6.36 12.51,-5.93 12.12,-5.62 11.74,-5.30 11.27,-5.13 10.80,-4.96 10.30,-4.94 9.80,-4.93 9.32,-5.07 8.84,-5.22 8.43,-5.51 8.03,-5.80 7.73,-6.20 7.44,-6.61 7.29,-7.09 7.14,-7.56 7.16,-8.06 7.17,-8.56 7.34,-9.03 7.51,-9.50 7.82,-9.89 8.14,-10.28 8.56,-10.55 8.98,-10.82 9.46,-10.95 9.95,-11.07 10.44,-11.03 10.94,-10.99 11.40,-10.79 11.86,-10.60 12.24,-10.27 12.61,-9.93 12.86,-9.50 13.10,-9.06 13.20,-8.57 13.30,-8.08 13.23,-7.59 13.16,-7.09 12.94,-6.64 12.72,-6.19 12.72,-6.19 12.72,-6.19 11.18,-4.87 9.64,-3.54 8.79,-2.82 7.95,-2.10 6.68,-1.49 5.42,-0.87 4.42,-0.28 3.43,0.29 2.62,1.06 1.82,1.82 1.58,2.01 1.33,2.20 1.05,2.33 0.76,2.46 0.46,2.52 0.15,2.57 -0.15,2.55 -0.46,2.53 -0.76,2.44 -1.05,2.35 -1.32,2.19 -1.59,2.03 -1.81,1.81 -2.03,1.59 -2.19,1.32 -2.35,1.05 -2.44,0.76 -2.53,0.46 -2.55,0.15 -2.57,-0.15 -2.52,-0.46 -2.46,-0.76 -2.33,-1.05 -2.20,-1.33 -2.01,-1.58 -1.82,-1.82 -1.82,-1.82 L -1.82,-1.82 Z"></path></g><g stroke-linecap="round" transform="translate(521.2296978182717 15.4630227114003) rotate(0 5.974789129318879 5.4316264811989186)"><path d="M2.72 0 C5.16 0.25, 7.01 0.03, 9.23 0 M2.72 0 C5.21 -0.11, 7.61 0.14, 9.23 0 M9.23 0 C10.96 0.64, 11.52 0.64, 11.95 2.72 M9.23 0 C11.79 1.13, 13.08 1.61, 11.95 2.72 M11.95 2.72 C12.18 4.59, 11.68 6.96, 11.95 8.15 M11.95 2.72 C12 4, 12.03 5.21, 11.95 8.15 M11.95 8.15 C12.74 10.4, 10.43 11.43, 9.23 10.86 M11.95 8.15 C11.17 9.03, 11.17 10.83, 9.23 10.86 M9.23 10.86 C6.56 11.11, 4.28 11.04, 2.72 10.86 M9.23 10.86 C7.26 10.79, 5.08 10.92, 2.72 10.86 M2.72 10.86 C1.45 10.58, 0.94 9.49, 0 8.15 M2.72 10.86 C2.03 10.29, -0.61 8.87, 0 8.15 M0 8.15 C0.17 7.04, -0.04 5.24, 0 2.72 M0 8.15 C0.04 6.76, 0.05 5.28, 0 2.72 M0 2.72 C-0.02 0, 1.56 0.18, 2.72 0 M0 2.72 C-0.52 1.49, 1.34 -0.4, 2.72 0" stroke="#868e96" stroke-width="4" fill="none"></path></g><g stroke-linecap="round"><g transform="translate(499.503191893476 23.610462433198677) rotate(0 7.332695749618551 -0.2715813240599516)"><path d="M0.48 -0.32 C2.86 -0.39, 12.31 -0.03, 14.77 -0.1 M0.07 0.7 C2.33 0.45, 11.88 -0.68, 14.39 -0.84" stroke="#868e96" stroke-width="4" fill="none"></path></g></g><mask></mask><g stroke-linecap="round"><g transform="translate(197.75432777868218 80.72714841162434) rotate(0 88.6998188021696 0)"><path d="M0 0 C38.47 1.27, 78.33 1.89, 177.4 0 M0 0 C63.56 0.93, 126.05 -0.18, 177.4 0" stroke="#1e1e1e" stroke-width="1" fill="none"></path></g><g transform="translate(197.75432777868218 80.72714841162434) rotate(0 88.6998188021696 0)"><path d="M153.92 8.6 C159.32 7.16, 166.03 5.92, 177.4 0 M153.92 8.6 C162.34 6.09, 169.75 1.9, 177.4 0" stroke="#1e1e1e" stroke-width="1" fill="none"></path></g><g transform="translate(197.75432777868218 80.72714841162434) rotate(0 88.6998188021696 0)"><path d="M153.89 -8.51 C159.15 -6.26, 165.87 -3.82, 177.4 0 M153.89 -8.51 C162.47 -4.89, 169.9 -2.96, 177.4 0" stroke="#1e1e1e" stroke-width="1" fill="none"></path></g></g><mask></mask><g transform="translate(214.86200141933296 30.128414394930076) rotate(0 73.80000305175781 16.80000000000001)"><text x="0" y="27.0375" font-family="Cascadia, Segoe UI Emoji" font-size="28px" fill="#1e1e1e" text-anchor="start" style="white-space: pre;" direction="ltr" dominant-baseline="alphabetic">$(waycwd)</text></g></svg>